<?xml version="1.0" encoding="UTF-8" standalone="no"?>
<!-- Created with Inkscape (http://www.inkscape.org/) -->

<svg
   xmlns:dc="http://purl.org/dc/elements/1.1/"
   xmlns:cc="http://creativecommons.org/ns#"
   xmlns:rdf="http://www.w3.org/1999/02/22-rdf-syntax-ns#"
   xmlns:svg="http://www.w3.org/2000/svg"
   xmlns="http://www.w3.org/2000/svg"
   xmlns:sodipodi="http://sodipodi.sourceforge.net/DTD/sodipodi-0.dtd"
   xmlns:inkscape="http://www.inkscape.org/namespaces/inkscape"
   version="1.1"
   width="686.15997"
   height="285.44"
   id="svg2"
   inkscape:version="0.48.4 r9939"
   sodipodi:docname="Micro Soft.svg">
  <sodipodi:namedview
     pagecolor="#ffffff"
     bordercolor="#666666"
     borderopacity="1"
     objecttolerance="10"
     gridtolerance="10"
     guidetolerance="10"
     inkscape:pageopacity="0"
     inkscape:pageshadow="2"
     inkscape:window-width="1280"
     inkscape:window-height="750"
     id="namedview4146"
     showgrid="false"
     inkscape:zoom="0.35355339"
     inkscape:cx="172.99001"
     inkscape:cy="294.93583"
     inkscape:window-x="-8"
     inkscape:window-y="-8"
     inkscape:window-maximized="1"
     inkscape:current-layer="svg2" />
  <defs
     id="defs4" />
  <metadata
     id="metadata7">
    <rdf:RDF>
      <cc:Work
         rdf:about="">
        <dc:format>image/svg+xml</dc:format>
        <dc:type
           rdf:resource="http://purl.org/dc/dcmitype/StillImage" />
        <dc:title />
      </cc:Work>
    </rdf:RDF>
  </metadata>
  <g
     id="g3964"
     transform="translate(-70.46875,-137.46624)">
    <path
       id="path2996"
       d="m 631.3125,288.625 c -23.32518,0 -42.40625,19.08108 -42.40625,42.40625 l 0,4.71875 0,1.875 0,80.6875 0,0.71875 3.71875,0 0,-0.71875 0.0312,0 0,-78.8125 73.90625,0 0,-3.75 -41.0625,0 0,-4.71875 c 0,-3.08918 2.72332,-5.78125 5.8125,-5.78125 l 62.125,0 0,93.0625 3.71875,0 0,-125.84375 59.46875,0.0937 0,-3.78125 -125.3125,-0.15625 z m 0,3.71875 62.125,0.0937 0,3.46875 -63.65625,0 c -18.01073,0 -32.375,14.39552 -32.375,32.40625 l 0,7.4375 -4.78125,0 0,-4.71875 c 0,-21.28541 17.40208,-38.6875 38.6875,-38.6875 z m 68.9375,3.4375 0,1.53125 0,121 3.09375,0 0,-119.4375 52.875,0 0,-3.09375 -54.4375,0 -1.53125,0 z M 629.78125,299 l 63.65625,0 0,2.71875 -63.28125,0 c -14.70607,0 -26.625,11.88768 -26.625,26.59375 l 0,7.4375 -3.03125,0 0,-7.4375 C 600.5,311.9288 613.39755,299 629.78125,299 z M 706,301.53125 l 0,1.40625 0,115.375 2.78125,0 0,-114 47.4375,0 0,-2.78125 -48.8125,0 -1.40625,0 z m -75.84375,2.9375 63.28125,0 0,3.21875 -63.65625,0 c -12.07025,0 -21.8125,9.74225 -21.8125,21.8125 l 0,6.25 -1.65625,0 0,-7.4375 c 0,-13.21812 10.62563,-23.84375 23.84375,-23.84375 z m 80.8125,3 0,1.25 0,109.59375 2.46875,0 0,-108.375 42.78125,0 0,-2.46875 -44.03125,0 -1.21875,0 z m -81.1875,2.65625 63.65625,0 0,2.34375 -62.125,0 c -10.18778,0 -18.5625,8.37472 -18.5625,18.5625 l 0,4.71875 -2.34375,0 0,-6.25 c 0,-10.74586 8.62914,-19.375 19.375,-19.375 z m 86.46875,2.1875 0,1.1875 0,104.8125 2.375,0 0,-103.59375 37.59375,0 0,-2.40625 -38.78125,0 -1.1875,0 z m -84.9375,2.53125 62.125,0 0,2.71875 -62.125,0 c -7.37267,0 -13.46875,6.09608 -13.46875,13.46875 l 0,4.71875 -2.71875,0 0,-4.71875 c 0,-8.8824 7.3051,-16.1875 16.1875,-16.1875 z m 90.375,2.53125 0,1.03125 0,99.90625 2.03125,0 0,-98.875 32.5,0 0,-2.0625 -33.53125,0 -1,0 z m -90.375,2.21875 62.125,0 0,3.9375 -62.125,0 c -4.06214,0 -7.5,3.43786 -7.5,7.5 l 0,4.71875 -3.9375,0 0,-4.71875 c 0,-6.24889 5.18861,-11.4375 11.4375,-11.4375 z m 95.6875,3.75 0,0.84375 0,94.125 1.71875,0 0,-93.28125 27.5,0 0,-1.6875 -28.375,0 -0.84375,0 z m -129.9375,19.9375 0,1.53125 0,73.5 3.0625,0 0,-71.9375 66.4375,0 0,-3.09375 -67.96875,0 -1.53125,0 z m 6.09375,5.40625 0,1.375 0,68.25 2.78125,0 0,-66.84375 60.625,0 0,-2.78125 -62,0 -1.40625,0 z m 4.4375,5.21875 0,1.25 0,63.15625 2.46875,0 0,-61.9375 56.5,0 0,-2.46875 -57.75,0 -1.21875,0 z m 4.84375,5.21875 0,1.1875 0,58 2.375,0 0,-56.8125 51.75,0 0,-2.375 -52.9375,0 -1.1875,0 z m 5.0625,5.21875 0,1.03125 0,52.9375 2.03125,0 0,-51.90625 47.03125,0 0,-2.0625 -48.03125,0 -1.03125,0 z m 5.96875,5.34375 0,0.84375 0,47.78125 1.6875,0 0,-46.9375 41.40625,0 0,-1.6875 -42.25,0 -0.84375,0 z"
       style="font-size:medium;font-style:normal;font-variant:normal;font-weight:normal;font-stretch:normal;text-indent:0;text-align:start;text-decoration:none;line-height:normal;letter-spacing:normal;word-spacing:normal;text-transform:none;direction:ltr;block-progression:tb;writing-mode:lr-tb;text-anchor:start;baseline-shift:baseline;color:#000000;fill:#000000;fill-opacity:1;stroke:none;stroke-width:1;marker:none;visibility:visible;display:inline;overflow:visible;enable-background:accumulate;font-family:Sans;-inkscape-font-specification:Sans"
       inkscape:connector-curvature="0" />
    <path
       id="path4038"
       d="m 514.25,139.125 c -18.16635,0 -36.14806,7.44401 -49.03125,20.25 l -0.15625,0.125 c -12.89279,12.89278 -20.375,30.95435 -20.375,49.1875 0,18.23315 7.48221,36.29472 20.375,49.1875 l 0.0937,0.0937 c 12.88657,12.83533 30.90493,20.2813 49.0938,20.2813 18.18887,0 36.20728,-7.44602 49.09375,-20.28125 l 0.0937,-0.0937 c 12.89279,-12.89278 20.375,-30.95435 20.375,-49.1875 0,-18.23315 -7.48221,-36.29472 -20.375,-49.1875 -12.89279,-12.89278 -30.95435,-20.375 -49.1875,-20.375 z m 0,3.75 c 17.20511,0 34.3654,7.1154 46.53125,19.28125 12.16585,12.16585 19.28125,29.32614 19.28125,46.53125 0,17.20511 -7.1154,34.3654 -19.28125,46.53125 C 548.6154,267.3846 531.45511,274.5 514.25,274.5 c -17.20511,0 -34.3654,-7.1154 -46.53125,-19.28125 C 455.5529,243.0529 448.4375,225.89261 448.4375,208.6875 c 0,-17.20511 7.1154,-34.3654 19.28125,-46.53125 C 479.8846,149.9904 497.04489,142.875 514.25,142.875 z m 0,3.25 c -16.40336,0 -32.65107,6.71357 -44.25,18.3125 -11.59893,11.59893 -18.3125,27.84663 -18.3125,44.25 0,16.40337 6.71357,32.65107 18.3125,44.25 11.59893,11.59893 27.84664,18.3125 44.25,18.3125 16.40336,0 32.65107,-6.71357 44.25,-18.3125 11.59893,-11.59893 18.34375,-27.84663 18.34375,-44.25 0,-16.40337 -6.74482,-32.65107 -18.34375,-44.25 -11.59893,-11.59893 -27.84664,-18.3125 -44.25,-18.3125 z m 0,3.40625 c 15.46879,0 30.90567,6.37442 41.84375,17.3125 10.93808,10.93808 17.34375,26.37497 17.34375,41.84375 0,15.46878 -6.40567,30.90567 -17.34375,41.84375 -10.93808,10.93808 -26.37496,17.3125 -41.84375,17.3125 -15.39519,0 -30.759,-6.3133 -41.6875,-17.15625 l -0.15625,-0.15625 c -10.93808,-10.93808 -17.3125,-26.37497 -17.3125,-41.84375 0,-15.46878 6.37442,-30.90567 17.3125,-41.84375 10.93808,-10.93808 26.37496,-17.3125 41.84375,-17.3125 z m 0,2.71875 c -14.79646,0 -29.44357,6.06858 -39.90625,16.53125 -10.46268,10.46267 -16.53125,25.10979 -16.53125,39.90625 0,14.79646 6.06857,29.44358 16.53125,39.90625 10.46268,10.46267 25.10979,16.53125 39.90625,16.53125 14.79646,0 29.44357,-6.06858 39.90625,-16.53125 10.46268,-10.46267 16.53125,-25.10979 16.53125,-39.90625 0,-14.79646 -6.06857,-29.44358 -16.53125,-39.90625 C 543.69357,158.31858 529.04646,152.25 514.25,152.25 z m 0,3.0625 c 13.95534,0 27.88209,5.75709 37.75,15.625 9.86791,9.86791 15.625,23.79466 15.625,37.75 0,13.95534 -5.75709,27.88209 -15.625,37.75 -9.86791,9.86791 -23.79466,15.625 -37.75,15.625 -13.95534,0 -27.88209,-5.75709 -37.75,-15.625 -9.86791,-9.86791 -15.625,-23.79466 -15.625,-37.75 0,-13.95534 5.75709,-27.88209 15.625,-37.75 9.86791,-9.86791 23.79466,-15.625 37.75,-15.625 z m 0,2.21875 c -13.39777,0 -26.6743,5.47255 -36.15625,14.9375 l -0.0312,0.0312 c -9.48403,9.48402 -14.96875,22.77506 -14.96875,36.1875 0,13.41244 5.48472,26.70348 14.96875,36.1875 9.48403,9.48402 22.77506,14.96875 36.1875,14.96875 13.41244,0 26.70347,-5.48473 36.1875,-14.96875 9.48403,-9.48402 14.96875,-22.77506 14.96875,-36.1875 0,-13.41244 -5.48472,-26.70348 -14.96875,-36.1875 -9.48403,-9.48402 -22.77506,-14.96875 -36.1875,-14.96875 z m 0,2.71875 c 12.66478,0 25.29465,5.23216 34.25,14.1875 8.95535,8.95534 14.1875,21.58522 14.1875,34.25 0,12.66478 -5.23215,25.29466 -14.1875,34.25 -8.95535,8.95534 -21.58522,14.1875 -34.25,14.1875 -12.63541,0 -25.23592,-5.20765 -34.1875,-14.125 L 480,242.9375 c -8.95535,-8.95534 -14.1875,-21.58522 -14.1875,-34.25 0,-12.66478 5.23215,-25.29466 14.1875,-34.25 8.95535,-8.95534 21.58522,-14.1875 34.25,-14.1875 z m 0.0937,2.96875 c -11.91698,0 -23.72967,4.88593 -32.15625,13.3125 -8.42658,8.42657 -13.3125,20.23927 -13.3125,32.15625 0,11.90887 4.89646,23.69957 13.3125,32.125 l 0,0.0312 c 8.42658,8.42657 20.23927,13.3125 32.15625,13.3125 11.91698,0 23.72967,-4.88593 32.15625,-13.3125 l 0.0625,-0.0937 c 8.37783,-8.4212 13.25,-20.18304 13.25,-32.0625 0,-11.91698 -4.88592,-23.72968 -13.3125,-32.15625 -8.42658,-8.42657 -20.23927,-13.3125 -32.15625,-13.3125 z m 0,2.375 c 11.26277,0 22.50477,4.66102 30.46875,12.625 7.96398,7.96398 12.59375,19.20598 12.59375,30.46875 0,11.26277 -4.62977,22.50477 -12.59375,30.46875 -7.96398,7.96398 -19.20598,12.59375 -30.46875,12.59375 -11.26277,0 -22.50477,-4.62977 -30.46875,-12.59375 -7.96398,-7.96398 -12.625,-19.20598 -12.625,-30.46875 0,-11.26277 4.66102,-22.50477 12.625,-30.46875 7.96398,-7.96398 19.20598,-12.625 30.46875,-12.625 z m 0,3.75 c -10.31007,0 -20.52218,4.24093 -27.8125,11.53125 C 479.24093,188.16532 475,198.37743 475,208.6875 c 0,10.31007 4.24093,20.52218 11.53125,27.8125 7.29032,7.29032 17.50243,11.53125 27.8125,11.53125 10.31007,0 20.52218,-4.24093 27.8125,-11.53125 7.29032,-7.29032 11.53125,-17.50243 11.53125,-27.8125 0,-10.31007 -4.24093,-20.52218 -11.53125,-27.8125 -7.29032,-7.29032 -17.50243,-11.53125 -27.8125,-11.53125 z m 0,2.0625 c 9.74932,0 19.48119,4.01244 26.375,10.90625 6.89381,6.89381 10.90625,16.62568 10.90625,26.375 0,9.74932 -4.01244,19.48119 -10.90625,26.375 -6.89381,6.89381 -16.62568,10.90625 -26.375,10.90625 -9.74932,0 -19.48119,-4.01244 -26.375,-10.90625 -6.89381,-6.89381 -10.90625,-16.62568 -10.90625,-26.375 0,-9.74932 4.01244,-19.48119 10.90625,-26.375 6.89381,-6.89381 16.62568,-10.90625 26.375,-10.90625 z m 0,3.21875 c -8.92745,0 -17.78187,3.65532 -24.09375,9.96875 -6.31188,6.31343 -9.97094,15.1663 -9.96875,24.09375 0.002,8.92465 3.65729,17.7526 9.96875,24.0625 l 0.0312,0.0312 c 6.30938,6.29084 15.15252,9.9375 24.0625,9.9375 8.92465,0 17.75104,-3.65885 24.0625,-9.96875 6.31146,-6.3099 9.99781,-15.13785 10,-24.0625 0.002,-8.92745 -3.65687,-17.78032 -9.96875,-24.09375 -6.31188,-6.31343 -15.1663,-9.96875 -24.09375,-9.96875 z m 0,1.6875 c 8.46008,0 16.89356,3.51709 22.875,9.5 5.98144,5.98291 9.47083,14.41492 9.46875,22.875 -0.002,8.45744 -3.4877,16.89542 -9.46875,22.875 -5.98105,5.97958 -14.41756,9.46875 -22.875,9.46875 -8.45744,0 -16.89395,-3.48917 -22.875,-9.46875 -5.98105,-5.97958 -9.46667,-14.41756 -9.46875,-22.875 -0.002,-8.46008 3.48731,-16.89209 9.46875,-22.875 5.98144,-5.98291 14.41492,-9.5 22.875,-9.5 z"
       style="font-size:medium;font-style:normal;font-variant:normal;font-weight:normal;font-stretch:normal;text-indent:0;text-align:start;text-decoration:none;line-height:normal;letter-spacing:normal;word-spacing:normal;text-transform:none;direction:ltr;block-progression:tb;writing-mode:lr-tb;text-anchor:start;baseline-shift:baseline;color:#000000;fill:#000000;fill-opacity:1;stroke:none;stroke-width:1.70269442;marker:none;visibility:visible;display:inline;overflow:visible;enable-background:accumulate;font-family:Sans;-inkscape-font-specification:Sans"
       inkscape:connector-curvature="0" />
    <path
       id="path4038-4"
       d="m 514.25,283.8125 c -18.23315,0 -36.26347,7.45097 -49.15625,20.34375 -12.89279,12.89279 -20.375,30.9856 -20.375,49.21875 0,18.23315 7.48221,36.26346 20.375,49.15625 12.89278,12.89278 30.9231,20.375 49.15625,20.375 18.23315,0 36.26346,-7.48222 49.15625,-20.375 12.89278,-12.89279 20.40625,-30.9231 20.40625,-49.15625 0,-18.23315 -7.51347,-36.32596 -20.40625,-49.21875 C 550.51346,291.26347 532.48315,283.8125 514.25,283.8125 z m 0,3.75 c 17.20511,0 34.39664,7.08417 46.5625,19.25 12.16585,12.16584 19.25,29.35739 19.25,46.5625 0,17.20512 -7.08415,34.33416 -19.25,46.5 -12.16586,12.16583 -29.35739,19.3125 -46.5625,19.3125 -17.18015,0 -34.33733,-7.11646 -46.5,-19.25 l -0.0625,-0.0625 c -12.16585,-12.16584 -19.25,-29.29489 -19.25,-46.5 0,-17.20511 7.08415,-34.39666 19.25,-46.5625 12.16577,-12.16592 29.35738,-19.25 46.5625,-19.25 z m 0,3.21875 c -16.40337,0 -32.65107,6.71358 -44.25,18.3125 -11.59892,11.59892 -18.3125,27.87789 -18.3125,44.28125 0,16.40337 6.71358,32.61983 18.3125,44.21875 11.59893,11.59892 27.84663,18.34375 44.25,18.34375 16.40336,0 32.68233,-6.74483 44.28125,-18.34375 11.59893,-11.59892 18.3125,-27.81538 18.3125,-44.21875 0,-16.40336 -6.71357,-32.68233 -18.3125,-44.28125 -11.59892,-11.59892 -27.87789,-18.3125 -44.28125,-18.3125 z m 0,3.40625 c 15.46879,0 30.87442,6.37443 41.8125,17.3125 10.93807,10.93808 17.375,26.40621 17.375,41.875 0,15.4688 -6.43693,30.87442 -17.375,41.8125 -10.93808,10.93807 -26.34371,17.34375 -41.8125,17.34375 -15.46879,0 -30.87443,-6.40568 -41.8125,-17.34375 -10.93808,-10.93808 -17.34375,-26.3437 -17.34375,-41.8125 0,-15.46879 6.40567,-30.93692 17.34375,-41.875 10.93807,-10.93807 26.34371,-17.3125 41.8125,-17.3125 z m 0,2.71875 c -14.79646,0 -29.44357,6.06858 -39.90625,16.53125 -10.46268,10.46267 -16.53125,25.14104 -16.53125,39.9375 0,14.79646 6.06857,29.44358 16.53125,39.90625 10.46268,10.46267 25.10979,16.53125 39.90625,16.53125 14.79646,0 29.44357,-6.06858 39.90625,-16.53125 10.46268,-10.46267 16.53125,-25.10979 16.53125,-39.90625 0,-14.79646 -6.06857,-29.47483 -16.53125,-39.9375 C 543.69357,302.97483 529.04646,296.90625 514.25,296.90625 z m 0,3.0625 c 13.95534,0 27.88209,5.78834 37.75,15.65625 9.86791,9.86791 15.625,23.79466 15.625,37.75 0,13.95534 -5.75709,27.85084 -15.625,37.71875 -9.86791,9.86791 -23.79466,15.65625 -37.75,15.65625 -13.95534,0 -27.88209,-5.78834 -37.75,-15.65625 -9.86791,-9.86791 -15.625,-23.76341 -15.625,-37.71875 0,-13.95534 5.75709,-27.88209 15.625,-37.75 9.86791,-9.86791 23.79466,-15.65625 37.75,-15.65625 z m 0,2.21875 c -13.41244,0 -26.70347,5.51598 -36.1875,15 -9.48403,9.48402 -14.96875,22.77506 -14.96875,36.1875 0,13.41244 5.48472,26.67223 14.96875,36.15625 9.48403,9.48402 22.77506,15 36.1875,15 13.41244,0 26.70347,-5.51598 36.1875,-15 9.48403,-9.48402 14.96875,-22.74381 14.96875,-36.15625 0,-13.41244 -5.48472,-26.70348 -14.96875,-36.1875 l -0.0312,-0.0312 c -9.48204,-9.46496 -22.7586,-14.9688 -36.1563,-14.9688 z m 0,2.71875 c 12.66478,0 25.29465,5.23216 34.25,14.1875 8.95535,8.95534 14.1875,21.61647 14.1875,34.28125 0,12.66478 -5.23215,25.29466 -14.1875,34.25 -8.95535,8.95534 -21.58522,14.1875 -34.25,14.1875 -12.66478,0 -25.29465,-5.23216 -34.25,-14.1875 -8.95535,-8.95534 -14.1875,-21.58522 -14.1875,-34.25 0,-12.66478 5.23215,-25.32591 14.1875,-34.28125 8.95535,-8.95534 21.58522,-14.1875 34.25,-14.1875 z m 0.0937,3 c -11.91698,0 -23.72967,4.88593 -32.15625,13.3125 -8.42658,8.42657 -13.3125,20.23927 -13.3125,32.15625 0,11.91698 4.88592,23.69843 13.3125,32.125 8.42658,8.42657 20.23927,13.3125 32.15625,13.3125 11.91698,0 23.72967,-4.88593 32.15625,-13.3125 8.42658,-8.42657 13.3125,-20.20802 13.3125,-32.125 0,-11.91698 -4.88592,-23.72968 -13.3125,-32.15625 -8.42658,-8.42657 -20.23927,-13.3125 -32.15625,-13.3125 z m 0,2.375 c 11.26277,0 22.50477,4.66102 30.46875,12.625 7.96398,7.96398 12.59375,19.20598 12.59375,30.46875 0,11.26277 -4.62977,22.47352 -12.59375,30.4375 -7.96398,7.96398 -19.20598,12.625 -30.46875,12.625 -11.26277,0 -22.50477,-4.66102 -30.46875,-12.625 -7.96398,-7.96398 -12.625,-19.17473 -12.625,-30.4375 0,-11.26277 4.66102,-22.50477 12.625,-30.46875 7.96398,-7.96398 19.20598,-12.625 30.46875,-12.625 z m 0.0312,3.78125 c -10.31007,0 -20.55343,4.17843 -27.84375,11.46875 C 479.24092,332.82158 475,343.06493 475,353.375 c 0,10.31007 4.24092,20.49092 11.53125,27.78125 7.29032,7.29032 17.53368,11.53125 27.84375,11.53125 10.31007,0 20.45967,-4.24093 27.75,-11.53125 7.29032,-7.29033 11.5625,-17.47118 11.5625,-27.78125 0,-10.31007 -4.27218,-20.55342 -11.5625,-27.84375 -7.29033,-7.29032 -17.43993,-11.46875 -27.75,-11.46875 z m 0,2 c 9.74932,0 19.41868,4.01245 26.3125,10.90625 6.89382,6.8938 10.90625,16.65693 10.90625,26.40625 0,9.74933 -4.01243,19.44995 -10.90625,26.34375 -6.89382,6.8938 -16.56318,10.9375 -26.3125,10.9375 -9.74932,0 -19.51243,-4.0437 -26.40625,-10.9375 -6.89381,-6.8938 -10.90625,-16.59442 -10.90625,-26.34375 0,-9.74932 4.01244,-19.51245 10.90625,-26.40625 6.89382,-6.8938 16.65693,-10.90625 26.40625,-10.90625 z m -0.0312,3.25 c -8.92745,0 -17.78187,3.65532 -24.09375,9.96875 -6.31188,6.31343 -9.97094,15.1663 -9.96875,24.09375 0.002,8.92465 3.65729,17.7526 9.96875,24.0625 l 0.0312,0 c 6.31032,6.29939 15.14594,9.96875 24.0625,9.96875 8.92465,0 17.75104,-3.65885 24.0625,-9.96875 6.31146,-6.3099 9.99781,-15.13785 10,-24.0625 0.002,-8.92745 -3.65687,-17.78032 -9.96875,-24.09375 -6.31188,-6.31343 -15.1663,-9.96875 -24.09375,-9.96875 z m 0,1.6875 c 8.46008,0 16.89356,3.48584 22.875,9.46875 5.98144,5.98291 9.47083,14.44617 9.46875,22.90625 -0.002,8.45744 -3.4877,16.86417 -9.46875,22.84375 -5.98105,5.97958 -14.41756,9.46875 -22.875,9.46875 -8.45744,0 -16.89395,-3.48917 -22.875,-9.46875 -5.981,-5.97958 -9.46662,-14.38631 -9.4687,-22.84375 -0.002,-8.46008 3.48731,-16.92334 9.46875,-22.90625 C 497.45019,324.48584 505.88367,321 514.34375,321 z"
       style="font-size:medium;font-style:normal;font-variant:normal;font-weight:normal;font-stretch:normal;text-indent:0;text-align:start;text-decoration:none;line-height:normal;letter-spacing:normal;word-spacing:normal;text-transform:none;direction:ltr;block-progression:tb;writing-mode:lr-tb;text-anchor:start;baseline-shift:baseline;color:#000000;fill:#000000;fill-opacity:1;stroke:none;stroke-width:1.70269442;marker:none;visibility:visible;display:inline;overflow:visible;enable-background:accumulate;font-family:Sans;-inkscape-font-specification:Sans"
       inkscape:connector-curvature="0" />
    <path
       d="m 325.756,139.15232 c -38.34176,0 -69.65568,30.95808 -69.65568,69.29984 0,38.60864 31.31392,69.65568 69.65568,69.65568 5.07072,0 10.2304,-0.53376 14.94528,-1.60128 l 0,-3.73632 c -4.71488,1.24544 -9.87456,1.69024 -14.94528,1.69024 -36.29568,0 -65.74144,-29.44576 -65.74144,-66.00832 0,-36.29568 29.44576,-65.56352 65.74144,-65.56352 5.07072,0 10.2304,0.53376 14.94528,1.69024 l 0,-3.91424 c -4.71488,-0.97856 -9.87456,-1.51232 -14.94528,-1.51232 z m 0,7.02784 c -34.51648,0 -62.44992,27.84448 -62.44992,62.272 0,34.6944 27.93344,62.80576 62.44992,62.80576 5.07072,0 10.2304,-0.71168 14.94528,-1.86816 l 0,-3.38048 c -4.71488,1.15648 -9.87456,1.86816 -14.94528,1.86816 -32.64832,0 -59.06944,-26.59904 -59.06944,-59.42528 0,-32.55936 26.42112,-58.89152 59.06944,-58.89152 5.07072,0 10.2304,0.62272 14.94528,1.86816 l 0,-3.38048 c -4.71488,-1.24544 -9.87456,-1.86816 -14.94528,-1.86816 z m 0,5.87136 c -31.136,0 -56.31168,25.44256 -56.31168,56.40064 0,31.31392 25.17568,56.66752 56.31168,56.66752 5.24864,0 10.2304,-0.71168 14.94528,-2.04608 l 0,-3.20256 c -4.71488,1.51232 -9.69664,2.224 -14.94528,2.224 -29.44576,0 -53.46496,-24.0192 -53.46496,-53.64288 0,-29.26784 24.0192,-53.10912 53.46496,-53.10912 5.24864,0 10.2304,0.71168 14.94528,2.224 l 0,-3.46944 c -4.71488,-1.3344 -9.69664,-2.04608 -14.94528,-2.04608 z m 0,5.3376 c -28.28928,0 -51.06304,22.95168 -51.06304,51.06304 0,28.37824 22.77376,51.06304 51.06304,51.06304 5.24864,0 10.2304,-0.8896 14.94528,-2.224 l 0,-2.75776 c -4.71488,1.60128 -9.69664,2.40192 -14.94528,2.40192 -26.688,0 -48.4832,-21.61728 -48.4832,-48.4832 0,-26.59904 21.7952,-48.4832 48.4832,-48.4832 5.24864,0 10.2304,0.80064 14.94528,2.31296 l 0,-2.6688 c -4.71488,-1.42336 -9.69664,-2.224 -14.94528,-2.224 z m 0,5.7824 c -24.99776,0 -45.45856,20.37184 -45.45856,45.28064 0,25.17568 20.4608,45.63648 45.45856,45.63648 5.24864,0 10.2304,-0.8896 14.94528,-2.57984 l 0,-2.57984 c -4.53696,1.86816 -9.69664,2.75776 -14.94528,2.75776 -23.84128,0 -43.05664,-19.39328 -43.05664,-43.23456 0,-23.84128 19.21536,-42.87872 43.05664,-42.87872 5.24864,0 10.40832,0.80064 14.94528,2.49088 l 0,-2.31296 c -4.71488,-1.7792 -9.69664,-2.57984 -14.94528,-2.57984 z m 0,6.13824 c -21.61728,0 -39.32032,17.70304 -39.32032,39.1424 0,21.97312 17.70304,39.49824 39.32032,39.49824 5.24864,0 10.40832,-1.06752 14.94528,-2.93568 l 0,-2.40192 c -4.53696,2.04608 -9.69664,3.29152 -14.94528,3.29152 -20.63872,0 -37.27424,-16.72448 -37.27424,-37.45216 0,-20.4608 16.63552,-37.09632 37.27424,-37.09632 5.24864,0 10.40832,1.15648 14.94528,3.20256 l 0,-2.40192 c -4.53696,-1.86816 -9.69664,-2.84672 -14.94528,-2.84672 z m 0,5.07072 c -18.6816,0 -34.07168,15.30112 -34.07168,34.07168 0,18.6816 15.39008,34.07168 34.07168,34.07168 5.42656,0 10.40832,-1.24544 14.94528,-3.46944 l 0,-2.04608 c -4.35904,2.40192 -9.51872,3.73632 -14.94528,3.73632 -17.88096,0 -32.38144,-14.41152 -32.38144,-32.29248 0,-17.88096 14.50048,-32.38144 32.38144,-32.38144 5.42656,0 10.58624,1.42336 14.94528,3.73632 l 0,-1.86816 c -4.53696,-2.224 -9.51872,-3.5584 -14.94528,-3.5584 z"
       id="path4038-9"
       style="font-size:medium;font-style:normal;font-variant:normal;font-weight:normal;font-stretch:normal;text-indent:0;text-align:start;text-decoration:none;line-height:normal;letter-spacing:normal;word-spacing:normal;text-transform:none;direction:ltr;block-progression:tb;writing-mode:lr-tb;text-anchor:start;baseline-shift:baseline;color:#000000;fill:#000000;fill-opacity:1;stroke:none;stroke-width:1;marker:none;visibility:visible;display:inline;overflow:visible;enable-background:accumulate;font-family:Sans;-inkscape-font-specification:Sans"
       inkscape:connector-curvature="0" />
    <path
       id="path4257"
       d="m 213.46875,144.59375 0,134.3125 3.75,0 0,-134.3125 -3.75,0 z m 5.625,0 0,134.3125 3.40625,0 0,-134.3125 -3.40625,0 z m 5.59375,0 0,134.3125 3.0625,0 0,-134.3125 -3.0625,0 z m 5.40625,0 0,134.3125 2.71875,0 0,-134.3125 -2.71875,0 z m 5.59375,0 0,134.3125 2.375,0 0,-134.3125 -2.375,0 z m 5.59375,0 0,134.3125 2.0625,0 0,-134.3125 -2.0625,0 z m 5.6875,0 0,134.3125 1.71875,0 0,-134.3125 -1.71875,0 z"
       style="font-size:medium;font-style:normal;font-variant:normal;font-weight:normal;font-stretch:normal;text-indent:0;text-align:start;text-decoration:none;line-height:normal;letter-spacing:normal;word-spacing:normal;text-transform:none;direction:ltr;block-progression:tb;writing-mode:lr-tb;text-anchor:start;baseline-shift:baseline;color:#000000;fill:#000000;fill-opacity:1;stroke:none;stroke-width:3.74503779;marker:none;visibility:visible;display:inline;overflow:visible;enable-background:accumulate;font-family:Sans;-inkscape-font-specification:Sans"
       inkscape:connector-curvature="0" />
    <path
       id="path3134"
       d="m 88.84375,147.34375 -0.6875,4.875 -17.6875,126.6875 3.90625,0 16.84375,-121.34375 44.125,65.46875 1.5,2.40625 1.53125,-2.40625 44.0625,-65.46875 16.90625,121.34375 3.75,0 -17.53125,-126.6875 -0.71875,-4.875 -2.65625,4.09375 -45.34375,67.25 -45.28125,-67.25 -2.71875,-4.09375 z m 4.9375,19.03125 -0.6875,4.4375 -14.96875,108.09375 3.40625,0 14.3125,-103.28125 39.65625,58.71875 1.34375,2.21875 1.375,-2.21875 39.6875,-58.71875 14.21875,103.28125 3.46875,0 -15.03125,-108.09375 -0.625,-4.4375 -2.375,3.5625 -40.71875,60.5 -40.6875,-60.5 -2.375,-3.5625 z m 3.9375,15.03125 -0.53125,4.09375 -13.09375,93.40625 3.21875,0 L 99.75,189.6875 135.65625,243.15625 136.84375,245 138.0625,243.15625 174,189.6875 l 12.34375,89.21875 3.125,0 -13,-93.40625 -0.4375,-4.09375 -2.21875,3.375 -36.96875,54.8125 -36.75,-54.8125 -2.375,-3.375 z m 3.5625,15.3125 -0.5,3.5625 -10.90625,78.625 2.71875,0 10.375,-74.71875 32.6875,48.65625 1.1875,1.59375 1.21875,-1.59375 32.625,-48.65625 10.40625,74.71875 2.78125,0 -10.9375,-78.625 -0.46875,-3.5625 -2.03125,3 -33.59375,49.75 -33.53125,-49.75 -2.03125,-3 z m 3.5625,13.96875 -0.5,3 -9.03125,65.21875 2.40625,0 8.5,-61.8125 29.625,44.125 1,1.5 1.03125,-1.5 29.4375,-44.125 8.71875,61.8125 2.3125,0 -8.96875,-65.21875 -0.375,-3 -1.875,2.46875 -30.28125,45.1875 -30.28125,-45.1875 -1.71875,-2.46875 z m 3.0625,14.40625 -0.34375,2.5625 -7.125,51.25 2.21875,0 6.625,-48.125 L 136,270.375 l 0.84375,1.40625 0.875,-1.40625 26.75,-39.59375 6.59375,48.125 2.21875,0 -7.125,-51.25 -0.34375,-2.5625 -1.53125,2.21875 -27.4375,40.75 -27.40625,-40.75 -1.53125,-2.21875 z m 3.0625,13.78125 -0.3125,2.21875 -5.28125,37.8125 1.6875,0 4.9375,-35.21875 23.65625,35.21875 2.40625,0 23.65625,-35.21875 4.875,35.21875 1.78125,0 -5.3125,-37.8125 -0.375,-2.21875 -1.15625,1.875 -24.6875,36.8125 -24.65625,-36.8125 -1.21875,-1.875 z"
       style="font-size:medium;font-style:normal;font-variant:normal;font-weight:normal;font-stretch:normal;text-indent:0;text-align:start;text-decoration:none;line-height:normal;letter-spacing:normal;word-spacing:normal;text-transform:none;direction:ltr;block-progression:tb;writing-mode:lr-tb;text-anchor:start;baseline-shift:baseline;color:#000000;fill:#000000;fill-opacity:1;stroke:none;stroke-width:1.39999998;marker:none;visibility:visible;display:inline;overflow:visible;enable-background:accumulate;font-family:Sans;-inkscape-font-specification:Sans"
       inkscape:connector-curvature="0" />
    <path
       id="path3994"
       d="m 396.375,137.46875 c -25.25317,0 -45.8125,20.46945 -45.8125,45.8125 l 0,95.53125 3.9375,0 0,-95.53125 c 0,-23.22911 18.73393,-41.90625 41.875,-41.90625 23.14107,0 41.8125,18.67235 41.8125,41.90625 0,7.64638 -2.14714,14.88663 -5.84375,21.125 -0.64717,-0.65616 -1.31279,-1.29125 -2,-1.90625 3.17686,-5.72127 5,-12.32781 5,-19.21875 0,-21.51575 -17.54292,-38.96875 -38.96875,-38.96875 -21.51061,0 -39.03125,17.453 -39.03125,38.96875 l 0,95.53125 3.5625,0 0,-95.53125 c 0,-19.58377 15.87984,-35.40625 35.46875,-35.40625 19.49577,0 35.40625,15.82248 35.40625,35.40625 0,6.03178 -1.52798,11.83827 -4.21875,16.90625 -0.62969,-0.47736 -1.28196,-0.93085 -1.9375,-1.375 2.46732,-4.58741 3.875,-9.93111 3.875,-15.53125 0,-18.38187 -14.82771,-33.1875 -33.125,-33.1875 -18.29729,0 -33.15625,14.8002 -33.15625,33.1875 l 0,95.53125 3.1875,0 0,-95.53125 c 0,-16.66294 13.39372,-29.96875 29.96875,-29.96875 16.57503,0 29.90625,13.30038 29.90625,29.96875 0,4.98992 -1.25407,9.73676 -3.40625,13.8125 -0.78265,-0.45125 -1.56307,-0.87663 -2.375,-1.28125 2.06932,-3.83362 3.125,-8.14365 3.125,-12.53125 0,-15.08928 -12.24488,-27.3125 -27.25,-27.3125 -15.00512,0 -27.21875,12.22322 -27.21875,27.3125 l 0,95.53125 2.875,0 0,-95.53125 c 0,-13.55584 10.88167,-24.46875 24.34375,-24.46875 13.46208,0 24.375,10.91291 24.375,24.46875 0,4.00827 -0.95275,7.90797 -2.84375,11.34375 -1.02883,-0.43353 -2.08974,-0.82951 -3.15625,-1.1875 1.64542,-3.03188 2.625,-6.46356 2.625,-10.15625 0,-11.77139 -9.31232,-21.09375 -21,-21.09375 -11.68768,0 -20.96875,9.32236 -20.96875,21.09375 l 0,95.53125 2.46875,0 0,-95.53125 c 0,-10.46861 8.1256,-18.59375 18.5,-18.59375 10.3744,0 18.53125,8.12514 18.53125,18.59375 0,3.4253 -0.97831,6.59694 -2.59375,9.40625 -1.03156,-0.28214 -2.06528,-0.50889 -3.125,-0.71875 1.74188,-2.41973 2.6875,-5.44492 2.6875,-8.6875 0,-8.65882 -6.93179,-15.5 -15.5,-15.5 -8.56821,0 -15.5625,6.83335 -15.5625,15.5 l 0,95.53125 2.15625,0 0,-95.53125 c 0,-7.52407 5.96166,-13.34375 13.40625,-13.34375 7.44459,0 13.34375,5.81185 13.34375,13.34375 0,3.15559 -0.9745,6.02669 -2.75,8.125 l 0.25,0.21875 c -1.93108,-0.29486 -3.9036,-0.48691 -5.90625,-0.53125 2.66016,-1.70412 4.5,-4.59052 4.5,-7.8125 0,-5.1281 -4.3094,-9.4375 -9.4375,-9.4375 -5.20758,0 -9.5,4.3094 -9.5,9.4375 l 0,0.71875 0,94.8125 1.78125,0 0,-50.53125 c 2.56506,0.35308 5.35921,0.625 9.4375,0.625 l 0.0625,0 0.0937,0 c 1.95712,-0.17792 1.79562,-0.15625 2.0625,-0.15625 3.52113,0 6.5625,3.02532 6.5625,6.65625 l 0,43.40625 3.9375,0 0,-43.40625 c 0,-5.79883 -4.76929,-10.59375 -10.5,-10.59375 -0.24621,0 -0.65721,0.0467 -2.21875,0.1875 -0.0752,0 -0.11336,1.8e-4 -0.1875,0 -4.07321,-0.01 -6.66521,-0.28023 -9.25,-0.65625 l 0,-2.84375 c 2.56494,0.43098 5.32296,0.65625 9.0625,0.65625 l 0.0625,0 0.0312,0 c 1.86011,-0.0886 2.0552,-0.0937 2.5,-0.0937 6.97056,0 12.625,5.4818 12.625,12.625 l 0,44.125 3.5625,0 0,-44.125 c 0,-9.04752 -7.32318,-16.1875 -16.1875,-16.1875 -0.4293,0 -0.88407,0.0134 -2.59375,0.0937 -0.0405,0 -0.0535,5e-5 -0.0937,0 -3.84843,-0.005 -6.466,-0.25731 -8.96875,-0.71875 l 0,-2.40625 c 2.55605,0.51017 5.3098,0.8125 9.0625,0.8125 l 0.0937,0 0.0625,0 c 1.85382,-0.17655 1.9927,-0.1875 2.4375,-0.1875 10.17818,0 18.125,8.06321 18.125,18.25 l 0,44.46875 3.21875,0 0,-44.46875 c 0,-11.87529 -9.45985,-21.4375 -21.34375,-21.4375 -0.41964,0 -0.97086,0.0364 -2.59375,0.1875 l 0,-0.0312 c -3.90264,0 -6.52358,-0.32609 -9.0625,-0.875 l 0,-2.8125 c 2.46709,0.64505 5.16469,1.125 8.625,1.125 l 0.0625,0 0.0937,0 c 1.55524,-0.1728 2.16332,-0.1875 2.875,-0.1875 13.46802,0 24.375,10.81916 24.375,24.375 l 0,44.125 2.84375,0 0,-44.125 c 0,-15.08928 -12.21957,-27.21875 -27.21875,-27.21875 -0.67691,0 -1.5394,0.0297 -3.03125,0.1875 -0.0588,0 -0.098,2.8e-4 -0.15625,0 -3.44229,-0.0168 -5.97773,-0.55043 -8.46875,-1.25 l 0,-3.65625 c 2.43661,0.90445 4.99306,1.53125 7.71875,1.53125 l 3.9375,0 c 16.7791,0 30.25,13.20375 30.25,30.0625 l 0,44.46875 2.46875,0 0,-44.46875 c 0,-18.19149 -14.62553,-32.5625 -32.71875,-32.5625 l -3.9375,0 c -2.66183,0 -5.19016,-0.69395 -7.71875,-1.71875 l 0,-3.40625 c 2.24199,1.20822 4.82488,2.09375 7.71875,2.09375 1.18621,0 3.19033,-0.15625 3.9375,-0.15625 19.88179,0 36.09375,16.12358 36.09375,36.09375 l 0,44.125 2.15625,0 0,-44.125 c 0,-21.12935 -17.21019,-38.25 -38.25,-38.25 -1.03203,0 -2.98867,0.1875 -3.9375,0.1875 -2.87985,0 -5.46659,-1.01482 -7.71875,-2.40625 l 0,-5.84375 c 1.71814,2.4842 4.44105,4.25 7.71875,4.25 l 0.0937,0 0.0625,-0.0312 c 0.17653,-0.0294 0.55055,-0.006 0.84375,0 0.0219,4.7e-4 0.0401,0.0307 0.0625,0.0312 0.28803,0.008 0.48483,-0.0307 0.8125,0 0.69338,0.065 1.42983,0.15625 2.0625,0.15625 23.63732,0 42.875,18.72258 42.875,42.4375 l 0,43.59375 1.78125,0 0,-43.59375 c 0,-10.59009 -3.7067,-20.20813 -9.875,-27.75 4.4366,-7.04801 7.03125,-15.37597 7.03125,-24.1875 0,-25.33826 -20.49683,-45.8125 -45.75,-45.8125 z m 0,38.15625 c 4.12374,0 7.65625,3.53251 7.65625,7.65625 0,3.70128 -3.04864,7.16718 -6.84375,7.5625 -0.27181,-0.002 -0.54799,-0.0363 -0.8125,0 -4.07148,0 -7.32063,-3.20927 -7.71875,-7.03125 l 0,-0.53125 c 0,-4.12374 3.49657,-7.65625 7.71875,-7.65625 z"
       style="font-size:medium;font-style:normal;font-variant:normal;font-weight:normal;font-stretch:normal;text-indent:0;text-align:start;text-decoration:none;line-height:normal;letter-spacing:normal;word-spacing:normal;text-transform:none;direction:ltr;block-progression:tb;writing-mode:lr-tb;text-anchor:start;baseline-shift:baseline;color:#000000;fill:#000000;fill-opacity:1;stroke:none;stroke-width:1.78044546;marker:none;visibility:visible;display:inline;overflow:visible;enable-background:accumulate;font-family:Sans;-inkscape-font-specification:Sans"
       inkscape:connector-curvature="0" />
    <path
       id="path3994-9-8-5-6-7"
       d="m 400.3125,285.53125 c -23.59008,0 -42.75,19.15992 -42.75,42.75 0,23.93894 19.15992,43.09375 42.75,43.09375 4.01676,0 7.3125,3.18416 7.3125,5.9375 0,4.36252 -3.31843,7.5 -7.3125,7.5 -3.99407,0 -7.34375,-3.13748 -7.34375,-7.5 l -1.6875,0 c 0,5.24516 4.12932,9.1875 9.03125,9.1875 4.90193,0 9.03125,-3.94234 9.03125,-9.1875 0,-4.00762 -4.15201,-7.625 -9.03125,-7.625 -22.66912,0 -41.0625,-18.37431 -41.0625,-41.40625 0,-22.66912 18.39338,-41.0625 41.0625,-41.0625 22.66912,0 41.03125,18.39338 41.03125,41.0625 l 1.71875,0 c 0,-23.59008 -19.15992,-42.75 -42.75,-42.75 z m 0,6.15625 c -20.1283,0 -36.625,16.46545 -36.625,36.59375 0,20.64727 16.52146,36.4375 36.625,36.4375 7.04092,0 12.75,6.45098 12.75,12.59375 0,7.86243 -5.57449,12.65625 -12.75,12.65625 -7.17551,0 -12.78125,-4.79382 -12.78125,-12.65625 l -2.03125,0 c 0,8.86205 6.68689,14.71875 14.8125,14.71875 8.12561,0 14.8125,-5.8567 14.8125,-14.71875 0,-7.37915 -6.5523,-14.65625 -14.8125,-14.65625 -19.03886,0 -34.5625,-14.81235 -34.5625,-34.375 0,-19.0141 15.5484,-34.5625 34.5625,-34.5625 19.0141,0 34.5625,15.5484 34.5625,34.5625 l 2.03125,0 c 0,-20.1283 -16.46545,-36.59375 -36.59375,-36.59375 z m 0,5.25 c -17.27697,0 -31.34375,13.977 -31.34375,31.34375 0,17.36675 14.05828,31.53125 31.34375,31.53125 9.95207,0 17.75,7.91892 17.75,17.5 0,9.48642 -7.81128,17.5625 -17.75,17.5625 -5.03611,0 -9.44879,-1.62408 -12.59375,-4.59375 -3.14496,-2.96967 -5.09375,-7.28409 -5.09375,-12.96875 l -2.375,0 c 0,6.23598 2.20551,11.2833 5.84375,14.71875 3.63824,3.43545 8.66862,5.21875 14.21875,5.21875 11.23376,0 20.125,-9.14104 20.125,-19.9375 0,-10.87972 -8.90459,-19.875 -20.125,-19.875 -15.98557,0 -28.96875,-13.07404 -28.96875,-29.15625 0,-16.08221 12.97468,-28.96875 28.96875,-28.96875 16.08644,0 28.96875,12.88231 28.96875,28.96875 l 2.375,0 c 0,-17.36252 -13.98123,-31.34375 -31.34375,-31.34375 z m 0,5.34375 c -14.34667,0 -26,11.65333 -26,26 0,14.34667 11.61773,26.53125 26,26.53125 12.9285,0 23.375,9.63084 23.375,22.5 0,12.96294 -10.51771,23.625 -23.375,23.625 -12.85729,0 -23.28125,-10.65617 -23.28125,-23.625 l -2.71875,0 c 0,14.43085 11.63553,26.34375 26,26.34375 14.36447,0 26.09375,-11.90701 26.09375,-26.34375 0,-14.3526 -11.80049,-25.21875 -26.09375,-25.21875 -12.83949,0 -23.28125,-10.93741 -23.28125,-23.8125 0,-12.87509 10.40616,-23.28125 23.28125,-23.28125 12.87509,0 23.375,10.41209 23.375,23.28125 l 2.71875,0 c 0,-14.3526 -11.74708,-26 -26.09375,-26 z m 0,5.59375 c -11.38444,0 -20.40625,9.02181 -20.40625,20.40625 0,11.38444 9.06473,19.9375 20.40625,19.9375 15.89328,0 28.625,12.90984 28.625,29.09375 0,16.18391 -12.71543,28.78125 -28.625,28.78125 -15.81626,0 -28.625,-12.60269 -28.625,-28.78125 l -3.0625,0 c 0,17.80416 14.23272,31.84375 31.6875,31.84375 17.53939,0 31.6875,-14.04494 31.6875,-31.84375 0,-17.79881 -14.13182,-32.15625 -31.6875,-32.15625 -9.83096,0 -17.34375,-7.08696 -17.34375,-16.875 0,-9.78804 7.55571,-17.3125 17.34375,-17.3125 9.78804,0 17.40625,7.53304 17.40625,17.3125 l 3.0625,0 c 0,-11.39302 -9.08431,-20.40625 -20.46875,-20.40625 z m 0,4.90625 c -8.56107,0 -15.5,6.93893 -15.5,15.5 0,8.56107 6.93893,15.5 15.5,15.5 18.61175,0 33.875,15.82236 33.875,33.53125 0,19.66547 -15.18072,33.96875 -33.875,33.96875 -18.69428,0 -33.875,-14.30328 -33.875,-33.96875 l -3.40625,0 c 0,21.43405 16.83313,37.375 37.28125,37.375 20.44812,0 37.28125,-15.94095 37.28125,-37.375 0,-19.65431 -16.7506,-36.9375 -37.28125,-36.9375 -6.74005,0 -12.09375,-5.3537 -12.09375,-12.09375 0,-6.74005 5.3537,-12.09375 12.09375,-12.09375 6.74005,0 12.09375,5.3537 12.09375,12.09375 l 3.375,0 c 0,-8.56107 -6.90768,-15.5 -15.46875,-15.5 z m 0,5.4375 c -5.49661,0 -10.0625,4.56589 -10.0625,10.0625 0,5.49661 4.56589,10.0625 10.0625,10.0625 22.10402,-0.17003 40.03125,17.87555 40.03125,38.96875 0,22.20936 -17.90993,40 -40.03125,40 -22.12132,0 -40.03125,-17.79064 -40.03125,-40 l -3.75,0 c 0,24.22776 19.64337,43.75 43.78125,43.75 24.13788,0 43.75,-19.52224 43.75,-43.75 0,-23.19868 -19.6094,-42.88703 -43.75,-42.71875 -0.0105,0 -0.0208,6e-5 -0.0312,0 -3.38592,-0.0178 -6.28125,-2.92357 -6.28125,-6.3125 0,-3.39939 2.91311,-6.3125 6.3125,-6.3125 3.39939,0 6.3125,2.91311 6.3125,6.3125 l 3.75,0 c 0,-5.49661 -4.56589,-10.0625 -10.0625,-10.0625 z"
       style="font-size:medium;font-style:normal;font-variant:normal;font-weight:normal;font-stretch:normal;text-indent:0;text-align:start;text-decoration:none;line-height:normal;letter-spacing:normal;word-spacing:normal;text-transform:none;direction:ltr;block-progression:tb;writing-mode:lr-tb;text-anchor:start;baseline-shift:baseline;color:#000000;fill:#000000;fill-opacity:1;stroke:none;stroke-width:2.38314939;marker:none;visibility:visible;display:inline;overflow:visible;enable-background:accumulate;font-family:Sans;-inkscape-font-specification:Sans"
       inkscape:connector-curvature="0" />
  </g>
</svg>
