<?xml version="1.0" encoding="UTF-8" standalone="no"?>
<svg
   xmlns:dc="http://purl.org/dc/elements/1.1/"
   xmlns:cc="http://creativecommons.org/ns#"
   xmlns:rdf="http://www.w3.org/1999/02/22-rdf-syntax-ns#"
   xmlns:svg="http://www.w3.org/2000/svg"
   xmlns="http://www.w3.org/2000/svg"
   xmlns:sodipodi="http://sodipodi.sourceforge.net/DTD/sodipodi-0.dtd"
   xmlns:inkscape="http://www.inkscape.org/namespaces/inkscape"
   version="1.1"
   width="210"
   height="60"
   viewBox="0 60 210 60"
   id="svg4217"
   inkscape:version="0.48.5 r10040"
   sodipodi:docname="Microsoft_Windows_Millenium_Edition_Logo.svg">
  <metadata
     id="metadata4622">
    <rdf:RDF>
      <cc:Work
         rdf:about="">
        <dc:format>image/svg+xml</dc:format>
        <dc:type
           rdf:resource="http://purl.org/dc/dcmitype/StillImage" />
      </cc:Work>
    </rdf:RDF>
  </metadata>
  <defs
     id="defs4620" />
  <sodipodi:namedview
     pagecolor="#ffffff"
     bordercolor="#666666"
     borderopacity="1"
     objecttolerance="10"
     gridtolerance="10"
     guidetolerance="10"
     inkscape:pageopacity="0"
     inkscape:pageshadow="2"
     inkscape:window-width="1025"
     inkscape:window-height="774"
     id="namedview4618"
     showgrid="false"
     inkscape:zoom="3.99"
     inkscape:cx="103.05184"
     inkscape:cy="39.081636"
     inkscape:window-x="0"
     inkscape:window-y="25"
     inkscape:window-maximized="0"
     inkscape:current-layer="svg4217" />
  <title
     id="title4219">Microsoft Windows Millenium Edition Logo</title>
  <filter
     id="shadow">
    <feGaussianBlur
       stdDeviation=".5"
       id="feGaussianBlur4222" />
  </filter>
  <g
     id="g4260">
    <g
       id="g4262">
      <path
         fill="#5DAC39"
         d="M190.926,80.039c0.329-0.32,0.631-0.457,1.007-0.411c0.201,0.136,0.278,0.456,0.227,0.936l-2.038,10.092c-0.604,2.604-0.729,4.639-0.378,6.074c0.329,1.393,1.106,2.148,2.291,2.285c0.705,0.139,1.535-0.16,2.543-0.914c-1.032,0.09-1.789-0.184-2.216-0.82c-0.429-0.596-0.63-1.621-0.63-3.039c0.074-2.512,0.729-5.892,1.912-10.116c0.705-2.33,1.059-4.087,1.084-5.297c0.022-1.211-0.329-2.01-0.985-2.421c-0.629-0.365-1.635,0.206-2.994,1.69c-1.233,1.323-2.872,3.517-4.884,6.577c0-3.837-0.151-6.668-0.429-8.519c-0.303-1.894-0.779-2.876-1.409-2.967c-1.107,0-2.191,0.707-3.3,2.123c-1.081,1.371-2.113,3.334-3.094,5.869l-0.303-7.992c0-1.028-0.403-1.484-1.207-1.394c-0.53,0.069-0.806,0.823-0.806,2.215c-0.379,7.376-0.982,12.925-1.838,16.647c-0.631,2.83-0.906,5.002-0.807,6.531c0.152,0.914,0.479,1.393,0.98,1.439c0.504,0.021,0.856-0.389,1.032-1.279c1.712-6.645,3.552-12.445,5.49-17.355c0.502-1.712,1.132-2.625,1.812-2.764c0.504,0,0.856,0.32,0.981,0.959c0.103,0.412,0.151,1.371,0.151,2.809c0,2.832-0.275,7.673-0.83,14.523c-0.124,1.531,0.077,2.305,0.631,2.305c0.703,0,1.107-0.797,1.207-2.396c0.729-4.611,2.718-9.362,5.992-14.248C190.522,80.565,190.8,80.176,190.926,80.039z"
         id="path4264" />
      <path
         fill="#5DAC39"
         stroke="#5DAC39"
         stroke-width="0.7"
         stroke-linecap="round"
         stroke-linejoin="round"
         d="M190.926,80.039c-0.126,0.138-0.403,0.526-0.805,1.142c-3.273,4.887-5.263,9.636-5.991,14.249c-0.102,1.6-0.505,2.398-1.208,2.398c-0.553,0-0.756-0.777-0.63-2.309c0.554-6.849,0.83-11.69,0.83-14.522c0-1.438-0.05-2.397-0.152-2.809c-0.124-0.64-0.478-0.959-0.982-0.959c-0.679,0.137-1.308,1.05-1.811,2.763c-1.938,4.91-3.778,10.71-5.49,17.356c-0.176,0.891-0.528,1.301-1.033,1.277c-0.501-0.045-0.828-0.525-0.979-1.438c-0.101-1.529,0.176-3.703,0.806-6.532c0.857-3.721,1.46-9.271,1.838-16.647c0-1.393,0.275-2.146,0.807-2.215c0.806-0.089,1.208,0.367,1.208,1.394l0.302,7.992c0.981-2.535,2.013-4.499,3.096-5.869c1.106-1.415,2.189-2.123,3.298-2.123c0.629,0.09,1.107,1.073,1.409,2.967c0.278,1.851,0.429,4.682,0.429,8.519c2.013-3.06,3.65-5.253,4.884-6.577c1.359-1.484,2.365-2.055,2.995-1.69c0.654,0.411,1.008,1.21,0.984,2.421c-0.026,1.209-0.378,2.967-1.084,5.297c-1.184,4.225-1.837,7.605-1.913,10.115c0,1.418,0.201,2.443,0.631,3.039c0.426,0.639,1.183,0.912,2.215,0.82c-1.008,0.756-1.836,1.053-2.541,0.916c-1.185-0.139-1.963-0.893-2.291-2.285c-0.354-1.438-0.228-3.473,0.377-6.075l2.039-10.092c0.05-0.481-0.025-0.8-0.227-0.936C191.555,79.582,191.252,79.718,190.926,80.039"
         id="path4266" />
    </g>
    <g
       id="g4268">
      <path
         fill="#5DAC39"
         d="M204.998,85.04c0.024-0.981-0.176-1.758-0.681-2.33c-0.478-0.547-1.183-0.845-2.063-0.891c-1.765,0-3.325,0.753-4.709,2.283c-1.359,1.509-2.214,3.402-2.594,5.732c-0.302,2.216-0.023,4.136,0.78,5.755c0.831,1.621,1.989,2.463,3.5,2.512c1.964-0.092,3.221-0.936,3.751-2.582c-0.983,0.688-1.89,1.008-2.746,1.008c-0.453,0-0.904-0.115-1.356-0.365c-0.454-0.299-0.831-0.664-1.16-1.145c-0.681-1.162-0.831-2.625-0.401-4.361c1.911-0.297,3.649-0.958,5.185-2.054C204.167,87.483,204.998,86.273,204.998,85.04z M199.309,84.995c0.907-1.096,1.813-1.554,2.644-1.326c0.654,0.161,1.008,0.503,1.058,1.03c0.076,0.456-0.15,1.004-0.604,1.575c-0.454,0.594-1.107,1.119-1.913,1.576c-0.881,0.502-1.862,0.824-2.894,0.96C197.799,87.369,198.353,86.114,199.309,84.995z"
         id="path4270" />
      <path
         fill="none"
         stroke="#5DAC39"
         stroke-width="0.7"
         stroke-linecap="round"
         stroke-linejoin="round"
         d="M201.952,83.669c0.654,0.161,1.008,0.503,1.058,1.03c0.073,0.456-0.152,1.004-0.604,1.575c-0.453,0.594-1.108,1.119-1.912,1.576c-0.883,0.502-1.863,0.824-2.896,0.96c0.201-1.439,0.757-2.694,1.711-3.814C200.216,83.899,201.12,83.441,201.952,83.669"
         id="path4272" />
      <path
         fill="none"
         stroke="#5DAC39"
         stroke-width="0.7"
         stroke-linecap="round"
         stroke-linejoin="round"
         d="M204.317,82.71c-0.478-0.547-1.183-0.845-2.063-0.891c-1.765,0-3.325,0.753-4.709,2.283c-1.359,1.509-2.214,3.402-2.594,5.732c-0.302,2.216-0.023,4.136,0.78,5.755c0.831,1.621,1.989,2.463,3.5,2.512c1.964-0.092,3.221-0.936,3.751-2.582c-0.983,0.688-1.89,1.008-2.746,1.008c-0.453,0-0.904-0.115-1.356-0.365c-0.454-0.299-0.831-0.664-1.16-1.145c-0.681-1.162-0.831-2.625-0.401-4.361c1.911-0.297,3.649-0.958,5.185-2.054c1.661-1.119,2.492-2.33,2.492-3.563C205.022,84.059,204.822,83.282,204.317,82.71"
         id="path4274" />
    </g>
  </g>
  <g
     id="g4276">
    <path
       d="M85.117,77.792h-4.816l-2.886,11.307l-2.859-11.307h-4.972l-2.679,11.443l-2.833-11.443H58.12l5.412,19.578h5.409L71.62,86.23l2.756,11.139h5.307L85.117,77.792z"
       id="path4278" />
    <path
       d="M83.881,81.708h5.95v-3.917h-5.95V81.708z M89.83,82.866h-5.95v14.503h5.95V82.866z"
       id="path4280" />
    <path
       d="M96.04,88.463c0-0.661,0.128-1.158,0.413-1.516c0.283-0.389,0.67-0.553,1.184-0.553c0.49,0,0.825,0.164,1.056,0.497c0.233,0.331,0.334,0.855,0.334,1.543v8.934h5.745v-9.541c0-1.874-0.385-3.225-1.159-4.081c-0.773-0.855-2.01-1.27-3.683-1.27c-0.979,0-1.854,0.221-2.576,0.635c-0.722,0.387-1.289,0.992-1.727,1.819v-2.067h-5.332v14.504h5.745L96.04,88.463L96.04,88.463z"
       id="path4282" />
    <path
       d="M119.972,77.792h-5.771v6.313c-0.464-0.549-1.005-0.964-1.599-1.212c-0.565-0.275-1.209-0.414-1.982-0.414c-1.828,0-3.297,0.691-4.405,2.097c-1.083,1.379-1.648,3.226-1.648,5.57c0,2.344,0.54,4.219,1.597,5.598c1.056,1.35,2.498,2.012,4.327,2.012c0.876,0,1.647-0.166,2.319-0.523c0.668-0.387,1.235-0.938,1.698-1.684l0.026,1.82h5.435V77.792H119.972z M112.45,86.12c0.593,0,1.058,0.165,1.339,0.467c0.285,0.36,0.413,0.8,0.413,1.38v4.136c0,0.551-0.128,1.02-0.465,1.352c-0.309,0.359-0.694,0.549-1.184,0.549c-0.669,0-1.133-0.301-1.441-0.908c-0.309-0.58-0.464-1.516-0.464-2.868c0-1.405,0.155-2.454,0.464-3.088C111.394,86.477,111.856,86.12,112.45,86.12z"
       id="path4284" />
    <path
       d="M133.651,84.576c-1.495-1.38-3.453-2.097-5.874-2.097c-2.447,0-4.38,0.717-5.9,2.097c-1.494,1.406-2.241,3.253-2.241,5.542c0,2.29,0.747,4.136,2.267,5.542c1.493,1.408,3.427,2.096,5.873,2.096c2.422,0,4.379-0.688,5.874-2.096c1.493-1.406,2.241-3.252,2.241-5.542C135.893,87.829,135.145,85.981,133.651,84.576z M125.769,90.118c0-1.38,0.153-2.372,0.462-3.033c0.311-0.635,0.852-0.965,1.547-0.965c0.694,0,1.184,0.33,1.52,0.965c0.311,0.661,0.489,1.654,0.489,3.033c0,1.378-0.179,2.372-0.489,3.034c-0.336,0.633-0.825,0.965-1.52,0.965c-0.695,0-1.236-0.332-1.547-0.965C125.922,92.545,125.769,91.523,125.769,90.118z"
       id="path4286" />
    <path
       d="M155.908,82.866h-4.046l-2.137,7.306l-1.881-7.306h-4.353l-1.829,7.113l-2.086-7.113h-5.72l4.79,14.503h4.2l2.062-8.107l2.009,8.107h4.25L155.908,82.866z"
       id="path4288" />
    <path
       d="M156.063,83.802c-1.263,0.911-1.907,2.152-1.907,3.641c0,0.634,0.155,1.241,0.438,1.792c0.309,0.58,0.723,1.049,1.237,1.407c0.851,0.659,2.266,1.13,4.301,1.489l1.571,0.221c1.21,0.139,1.829,0.439,1.829,0.883c0,0.275-0.181,0.551-0.567,0.688c-0.387,0.195-0.9,0.277-1.544,0.277c-0.954,0-1.728-0.139-2.243-0.414c-0.541-0.275-0.9-0.689-1.03-1.213l-4.715,0.551c0.413,1.488,1.263,2.592,2.603,3.365c1.314,0.771,3.038,1.158,5.151,1.158c2.268,0,4.098-0.498,5.487-1.463c1.392-0.939,2.088-2.18,2.088-3.723c0-0.58-0.13-1.16-0.362-1.711c-0.206-0.496-0.541-0.937-1.005-1.351c-0.721-0.606-2.009-1.076-3.864-1.407l-2.009-0.304c-1.52-0.192-2.318-0.523-2.318-0.992c0-0.303,0.155-0.524,0.439-0.688c0.283-0.139,0.694-0.221,1.235-0.221c0.722,0,1.313,0.11,1.728,0.332c0.412,0.193,0.771,0.496,1.03,0.938l4.508-0.745c-0.516-1.242-1.366-2.208-2.551-2.896c-1.16-0.66-2.652-0.991-4.431-0.991C159.024,82.425,157.352,82.894,156.063,83.802z"
       id="path4290" />
    <g
       id="g4292">
      <path
         d="M169.942,84.445c-0.205-0.221-0.438-0.303-0.722-0.303s-0.542,0.082-0.746,0.303c-0.182,0.221-0.284,0.467-0.284,0.799c0,0.303,0.103,0.552,0.284,0.745c0.204,0.221,0.462,0.304,0.746,0.304s0.515-0.083,0.722-0.304c0.182-0.192,0.284-0.441,0.284-0.745C170.227,84.913,170.124,84.667,169.942,84.445z M169.788,84.583c0.154,0.166,0.232,0.387,0.232,0.661c0,0.247-0.077,0.442-0.232,0.635c-0.154,0.166-0.334,0.249-0.565,0.249c-0.233,0-0.438-0.083-0.593-0.249c-0.181-0.193-0.259-0.387-0.259-0.635c0-0.274,0.078-0.496,0.259-0.661c0.155-0.195,0.36-0.277,0.593-0.277C169.453,84.306,169.633,84.388,169.788,84.583z"
         id="path4294" />
      <path
         d="M169.685,84.97c0-0.25-0.129-0.36-0.412-0.36h-0.463v1.241h0.18v-0.551h0.207l0.309,0.551h0.205l-0.334-0.551C169.583,85.272,169.685,85.162,169.685,84.97z M169.479,84.941c0,0.138-0.078,0.221-0.257,0.221h-0.233v-0.386h0.233C169.401,84.776,169.479,84.831,169.479,84.941z"
         id="path4296" />
    </g>
  </g>
  <g
     id="g4298">
    <path
       d="M58.708,77.893v-6.34h-1.103l-1.906,5.336l-1.936-5.336H52.66v6.34h0.651v-5.672l2.041,5.672h0.545l2.072-5.619v5.619H58.708z"
       id="path4300" />
    <path
       d="M60.145,72.256h0.68v-0.704h-0.68V72.256z M60.145,77.893h0.68v-4.686h-0.68V77.893z"
       id="path4302" />
    <path
       d="M63.895,73.665c0.288,0,0.529,0.106,0.71,0.317c0.212,0.212,0.333,0.512,0.378,0.863l0.65-0.106c-0.076-0.51-0.273-0.934-0.56-1.233c-0.302-0.282-0.68-0.441-1.119-0.441c-0.636,0-1.133,0.229-1.513,0.687c-0.378,0.477-0.575,1.058-0.575,1.797c0,0.757,0.167,1.356,0.529,1.797c0.362,0.458,0.847,0.688,1.451,0.688c0.469,0,0.863-0.141,1.179-0.44c0.302-0.282,0.514-0.688,0.605-1.199l-0.635-0.123c-0.061,0.37-0.197,0.669-0.394,0.862c-0.212,0.194-0.454,0.282-0.74,0.282c-0.378,0-0.681-0.159-0.923-0.512c-0.226-0.334-0.332-0.792-0.332-1.356c0-0.563,0.106-1.021,0.348-1.374C63.199,73.842,63.517,73.665,63.895,73.665z"
       id="path4304" />
    <path
       d="M68.884,73.083l-0.242-0.018c-0.332,0-0.604,0.106-0.816,0.3c-0.227,0.176-0.409,0.476-0.544,0.881v-1.04h-0.666v4.686h0.696v-2.361c0-0.528,0.136-0.95,0.394-1.269c0.257-0.316,0.605-0.476,1.074-0.476h0.105L68.884,73.083L68.884,73.083z"
       id="path4306" />
    <path
       d="M72.771,77.345c0.394-0.458,0.575-1.056,0.575-1.797c0-0.739-0.181-1.338-0.575-1.797c-0.378-0.457-0.877-0.687-1.526-0.687c-0.62,0-1.119,0.229-1.513,0.687c-0.378,0.459-0.575,1.058-0.575,1.797c0,0.74,0.197,1.339,0.575,1.797c0.394,0.458,0.891,0.688,1.513,0.688C71.879,78.033,72.376,77.805,72.771,77.345z M71.244,73.665c0.423,0,0.741,0.159,0.967,0.51c0.257,0.335,0.378,0.793,0.378,1.374c0,0.583-0.121,1.039-0.378,1.392c-0.227,0.334-0.559,0.51-0.967,0.51c-0.409,0-0.726-0.176-0.969-0.51c-0.241-0.334-0.363-0.792-0.363-1.392c0-0.598,0.121-1.056,0.349-1.374C70.503,73.824,70.835,73.665,71.244,73.665z"
       id="path4308" />
    <path
       d="M75.81,75.127c-0.68-0.158-1.029-0.388-1.029-0.722c0-0.229,0.076-0.406,0.257-0.545c0.167-0.125,0.408-0.195,0.696-0.195c0.287,0,0.53,0.07,0.696,0.195c0.18,0.122,0.302,0.317,0.377,0.545l0.635-0.141c-0.105-0.388-0.316-0.687-0.604-0.88c-0.287-0.211-0.651-0.318-1.075-0.318c-0.499,0-0.907,0.141-1.209,0.406c-0.302,0.263-0.469,0.598-0.469,1.021c0,0.352,0.106,0.634,0.317,0.828c0.226,0.195,0.62,0.37,1.18,0.492l0.242,0.053c0.726,0.193,1.089,0.458,1.089,0.792c0,0.229-0.091,0.423-0.288,0.564c-0.197,0.158-0.455,0.228-0.757,0.228c-0.333,0-0.604-0.07-0.846-0.228c-0.226-0.176-0.394-0.388-0.483-0.67l-0.62,0.125c0.105,0.422,0.333,0.757,0.665,0.986c0.349,0.245,0.771,0.369,1.286,0.369c0.529,0,0.952-0.141,1.285-0.422c0.318-0.264,0.499-0.635,0.499-1.04c0-0.352-0.122-0.634-0.349-0.828c-0.212-0.212-0.575-0.388-1.089-0.527L75.81,75.127z"
       id="path4310" />
    <path
       d="M78.804,73.752c-0.394,0.441-0.591,1.058-0.591,1.797c0,0.74,0.197,1.339,0.591,1.797c0.378,0.458,0.877,0.687,1.512,0.687c0.62,0,1.134-0.229,1.528-0.687c0.376-0.458,0.574-1.056,0.574-1.797c0-0.739-0.197-1.338-0.574-1.797c-0.378-0.457-0.893-0.687-1.528-0.687S79.182,73.295,78.804,73.752z M79.333,76.941c-0.242-0.352-0.363-0.81-0.363-1.392c0-0.581,0.121-1.039,0.363-1.374c0.228-0.352,0.56-0.51,0.983-0.51c0.409,0,0.726,0.159,0.983,0.51c0.226,0.335,0.362,0.793,0.362,1.374c0,0.583-0.136,1.039-0.378,1.392c-0.242,0.334-0.56,0.51-0.967,0.51C79.893,77.452,79.575,77.276,79.333,76.941z"
       id="path4312" />
    <path
       d="M84.338,73.207c0-0.035,0-0.053-0.015-0.087v-0.087c0-0.335,0.076-0.599,0.212-0.74c0.121-0.159,0.333-0.247,0.62-0.247l0.575,0.071v-0.583l-0.696-0.07c-0.468,0-0.816,0.141-1.043,0.423c-0.228,0.263-0.349,0.705-0.349,1.286v0.035h-0.832v0.512h0.832v4.174h0.695v-4.174h1.119v-0.512H84.338z"
       id="path4314" />
    <path
       d="M86.938,73.207v-1.179l-0.71,0.069v1.109h-0.802v0.512h0.802v2.431c0,0.458,0.014,0.757,0.06,0.934c0.015,0.141,0.061,0.281,0.136,0.387c0.136,0.195,0.302,0.335,0.499,0.423c0.167,0.087,0.409,0.141,0.711,0.141l0.575-0.07v-0.599l-0.484,0.053c-0.303,0-0.513-0.07-0.62-0.228c-0.122-0.159-0.167-0.494-0.167-1.003v-2.466h1.104v-0.512h-1.104V73.207z"
       id="path4316" />
    <path
       d="M88.527,72.75c-0.122,0.141-0.182,0.298-0.182,0.492c0,0.195,0.06,0.335,0.182,0.476c0.106,0.141,0.256,0.193,0.408,0.193c0.167,0,0.303-0.052,0.423-0.193c0.106-0.141,0.166-0.282,0.166-0.476s-0.061-0.352-0.166-0.492c-0.121-0.124-0.257-0.194-0.423-0.194C88.784,72.556,88.632,72.626,88.527,72.75z M88.466,73.243c0-0.159,0.045-0.299,0.136-0.405c0.091-0.105,0.213-0.157,0.333-0.157c0.136,0,0.257,0.052,0.333,0.157c0.105,0.106,0.15,0.246,0.15,0.405c0,0.158-0.045,0.299-0.15,0.404c-0.076,0.105-0.198,0.159-0.333,0.159c-0.121,0-0.242-0.054-0.333-0.159C88.512,73.542,88.466,73.401,88.466,73.243z"
       id="path4318" />
    <path
       d="M88.979,72.854h-0.256v0.775h0.09v-0.335h0.121l0.181,0.335h0.106l-0.181-0.335c0.106-0.035,0.167-0.106,0.167-0.229C89.207,72.926,89.131,72.854,88.979,72.854z M88.934,73.189h-0.121v-0.247h0.136c0.106,0,0.152,0.053,0.152,0.122C89.102,73.154,89.057,73.189,88.934,73.189z"
       id="path4320" />
  </g>
  <g
     id="g4322">
    <g
       id="g4324">
      <radialGradient
         id="SVGID_1_"
         cx="199.7705"
         cy="-230.7505"
         r="21.2661"
         gradientTransform="matrix(1 0 0 -1 -192.5996 -135.9902)"
         gradientUnits="userSpaceOnUse">
        <stop
           offset="0.051"
           stop-color="#FFF2D9"
           id="stop4327" />
        <stop
           offset="0.5843"
           stop-color="#DA1D20"
           id="stop4329" />
        <stop
           offset="0.9255"
           stop-color="#F5BD81"
           id="stop4331" />
      </radialGradient>
      <path
         fill="url(#SVGID_1_)"
         d="M5,78.66v17.303h16.053V78.66H5z M18.571,81.142v12.337H7.498V81.142H18.571z"
         id="path4333" />
      <radialGradient
         id="SVGID_2_"
         cx="201.2764"
         cy="-217.6611"
         r="15.3584"
         gradientTransform="matrix(1 0 0 -1 -192.5996 -135.9902)"
         gradientUnits="userSpaceOnUse">
        <stop
           offset="0.1686"
           stop-color="#FBE5CE"
           id="stop4336" />
        <stop
           offset="0.7412"
           stop-color="#E26E19"
           id="stop4338" />
      </radialGradient>
      <path
         fill="url(#SVGID_2_)"
         d="M18.571,93.48V81.142H7.498v12.337h11.073V93.48z"
         id="path4340" />
    </g>
    <g
       id="g4342">
      <radialGradient
         id="SVGID_3_"
         cx="204.167"
         cy="-240.2329"
         r="29.5189"
         gradientTransform="matrix(1 0 0 -1 -192.5996 -135.9902)"
         gradientUnits="userSpaceOnUse">
        <stop
           offset="0.0314"
           stop-color="#005EA3"
           id="stop4345" />
        <stop
           offset="0.3686"
           stop-color="#AFBCDB"
           id="stop4347" />
        <stop
           offset="0.7216"
           stop-color="#005CA3"
           id="stop4349" />
      </radialGradient>
      <path
         fill="url(#SVGID_3_)"
         d="M35.006,86.288H9.612v24.978h25.394V86.288z M12.644,89.285h19.332v19.016H12.644V89.285z"
         id="path4351" />
      <radialGradient
         id="SVGID_4_"
         cx="206.8877"
         cy="-243.7266"
         r="25.5496"
         gradientTransform="matrix(1 0 0 -1 -192.5996 -135.9902)"
         gradientUnits="userSpaceOnUse">
        <stop
           offset="0.0863"
           stop-color="#D3D9EA"
           id="stop4354" />
        <stop
           offset="0.7059"
           stop-color="#005CA3"
           id="stop4356" />
        <stop
           offset="1"
           stop-color="#005EA3"
           id="stop4358" />
      </radialGradient>
      <path
         fill="url(#SVGID_4_)"
         d="M31.976,89.285H12.644v19.016h19.332V89.285z"
         id="path4360" />
    </g>
    <g
       id="g4362">
      <radialGradient
         id="SVGID_5_"
         cx="241.0957"
         cy="-204.3008"
         r="33.2771"
         gradientTransform="matrix(1 0 0 -1 -192.5996 -135.9902)"
         gradientUnits="userSpaceOnUse">
        <stop
           offset="0.0078"
           stop-color="#5DAC39"
           id="stop4365" />
        <stop
           offset="0.4549"
           stop-color="#CEE1CD"
           id="stop4367" />
        <stop
           offset="0.8902"
           stop-color="#5DAC39"
           id="stop4369" />
      </radialGradient>
      <path
         fill="url(#SVGID_5_)"
         d="M49.825,67.505v-0.033l-34.552-1.383v0.018l0.083,0.066l3.864,2.981l28.507,0.1L49.825,67.505z"
         id="path4371" />
      <radialGradient
         id="SVGID_6_"
         cx="204.3623"
         cy="-224.9951"
         r="47.0715"
         gradientTransform="matrix(1 0 0 -1 -192.5996 -135.9902)"
         gradientUnits="userSpaceOnUse">
        <stop
           offset="0.0078"
           stop-color="#5DAC39"
           id="stop4374" />
        <stop
           offset="0.4549"
           stop-color="#CEE1CD"
           id="stop4376" />
        <stop
           offset="0.8902"
           stop-color="#5DAC39"
           id="stop4378" />
      </radialGradient>
      <path
         fill="url(#SVGID_6_)"
         d="M47.727,69.253h0.083l2.016,29.089v0.016l2.948,2.48l-2.948-33.333L47.727,69.253z"
         id="path4380" />
      <radialGradient
         id="SVGID_7_"
         cx="241.001"
         cy="-244.1421"
         r="30.0604"
         gradientTransform="matrix(1 0 0 -1 -192.5996 -135.9902)"
         gradientUnits="userSpaceOnUse">
        <stop
           offset="0.0078"
           stop-color="#5DAC39"
           id="stop4383" />
        <stop
           offset="0.4549"
           stop-color="#CEE1CD"
           id="stop4385" />
        <stop
           offset="0.8902"
           stop-color="#5DAC39"
           id="stop4387" />
      </radialGradient>
      <path
         fill="url(#SVGID_7_)"
         d="M52.772,100.891v-0.051l-2.948-2.48v0.018l-28.34,6.111v-0.018l-3.114,4.412L52.772,100.891z"
         id="path4389" />
      <radialGradient
         id="SVGID_8_"
         cx="242.4248"
         cy="-242.8506"
         r="9.1257"
         gradientTransform="matrix(1 0 0 -1 -192.5996 -135.9902)"
         gradientUnits="userSpaceOnUse">
        <stop
           offset="0.0078"
           stop-color="#5DAC39"
           id="stop4392" />
        <stop
           offset="0.4549"
           stop-color="#CEE1CD"
           id="stop4394" />
        <stop
           offset="0.8902"
           stop-color="#5DAC39"
           id="stop4396" />
      </radialGradient>
      <path
         fill="url(#SVGID_8_)"
         d="M49.825,98.344v0.033v-0.02V98.344z"
         id="path4398" />
      <radialGradient
         id="SVGID_9_"
         cx="212.0068"
         cy="-226.6587"
         r="38.8898"
         gradientTransform="matrix(1 0 0 -1 -192.5996 -135.9902)"
         gradientUnits="userSpaceOnUse">
        <stop
           offset="0.0078"
           stop-color="#5DAC39"
           id="stop4401" />
        <stop
           offset="0.4549"
           stop-color="#CEE1CD"
           id="stop4403" />
        <stop
           offset="0.8902"
           stop-color="#5DAC39"
           id="stop4405" />
      </radialGradient>
      <path
         fill="url(#SVGID_9_)"
         d="M18.954,69.154h0.267l-3.864-2.981l-0.083-0.066l3.098,42.776l3.114-4.414L18.954,69.154z"
         id="path4407" />
      <radialGradient
         id="SVGID_10_"
         cx="214.0859"
         cy="-243.0249"
         r="33.1516"
         gradientTransform="matrix(1 0 0 -1 -192.5996 -135.9902)"
         gradientUnits="userSpaceOnUse">
        <stop
           offset="0.0078"
           stop-color="#5DAC39"
           id="stop4410" />
        <stop
           offset="0.4549"
           stop-color="#CEE1CD"
           id="stop4412" />
        <stop
           offset="0.8902"
           stop-color="#5DAC39"
           id="stop4414" />
      </radialGradient>
      <path
         fill="url(#SVGID_10_)"
         d="M21.486,104.486v-0.018V104.486z"
         id="path4416" />
      <radialGradient
         id="SVGID_11_"
         cx="213.7979"
         cy="-234.6094"
         r="41.2109"
         gradientTransform="matrix(1 0 0 -1 -192.5996 -135.9902)"
         gradientUnits="userSpaceOnUse">
        <stop
           offset="0.0196"
           stop-color="#5DAC39"
           id="stop4419" />
        <stop
           offset="0.4667"
           stop-color="#CEE1CD"
           id="stop4421" />
        <stop
           offset="0.7412"
           stop-color="#5DAC39"
           id="stop4423" />
      </radialGradient>
      <path
         fill="url(#SVGID_11_)"
         d="M51.579,99.836l-2.089-32.051l-32.832-0.611l2.919,40L51.579,99.836z M46.96,70.669l1.898,26.989l-26.407,5.213l-2.347-32.736L46.96,70.669z"
         id="path4425" />
      <path
         fill="#FFFFFF"
         d="M48.858,97.658L46.96,70.669l-26.856-0.534l2.347,32.736L48.858,97.658z"
         id="path4427" />
    </g>
    <g
       id="schatten"
       opacity="0.5"
       filter="url(#shadow)">
      <path
         fill="#666666"
         d="M40.9,96.693l5.311-12.805c-2.313-2.58-5.211-3.83-8.691-3.779l-5.363,12.922C35.421,92.598,38.335,93.814,40.9,96.693z"
         id="path4430" />
      <path
         fill="#666666"
         d="M37.205,80.109l-1.949,0.117l-0.682,1.631l1.982-0.182L37.205,80.109z"
         id="path4432" />
      <path
         fill="#666666"
         d="M36.438,81.974l-1.965,0.134l-0.667,1.614l1.982-0.184L36.438,81.974z"
         id="path4434" />
      <path
         fill="#666666"
         d="M35.655,83.823l-1.948,0.116l-0.666,1.633l1.966-0.168L35.655,83.823z"
         id="path4436" />
      <path
         fill="#666666"
         d="M34.89,85.688l-1.95,0.117l-0.682,1.63l1.982-0.182L34.89,85.688z"
         id="path4438" />
      <path
         fill="#666666"
         d="M34.123,87.519l-1.949,0.134l-0.665,1.615l1.964-0.167L34.123,87.519z"
         id="path4440" />
      <path
         fill="#666666"
         d="M33.341,89.417l-1.948,0.117l-0.683,1.632L32.692,91L33.341,89.417z"
         id="path4442" />
      <path
         fill="#666666"
         d="M32.559,91.299l-1.949,0.115l-0.665,1.615l1.98-0.182L32.559,91.299z"
         id="path4444" />
      <path
         fill="#666666"
         d="M33.174,80.042l-0.615,1.466l1.831-0.134l0.617-1.482L33.174,80.042z"
         id="path4446" />
      <path
         fill="#666666"
         d="M33.608,83.257l0.615-1.464l-1.833,0.132l-0.598,1.467L33.608,83.257z"
         id="path4448" />
      <path
         fill="#666666"
         d="M32.875,85.038l0.599-1.467l-1.813,0.134l-0.617,1.465L32.875,85.038z"
         id="path4450" />
      <path
         fill="#666666"
         d="M30.875,85.572l-0.615,1.498l1.832-0.166l0.615-1.466L30.875,85.572z"
         id="path4452" />
      <path
         fill="#666666"
         d="M30.094,87.453l-0.615,1.482l1.831-0.151l0.616-1.464L30.094,87.453z"
         id="path4454" />
      <path
         fill="#666666"
         d="M29.343,89.252l-0.616,1.498l1.832-0.15l0.617-1.482L29.343,89.252z"
         id="path4456" />
      <path
         fill="#666666"
         d="M29.793,92.465l0.617-1.48l-1.832,0.133l-0.615,1.48L29.793,92.465z"
         id="path4458" />
      <path
         fill="#666666"
         d="M33.107,79.227l-1.548,0.067l-0.534,1.298l1.549-0.083L33.107,79.227z"
         id="path4460" />
      <path
         fill="#666666"
         d="M30.777,81.191l-0.549,1.299l1.565-0.084l0.532-1.299L30.777,81.191z"
         id="path4462" />
      <path
         fill="#666666"
         d="M30.043,82.975l-0.549,1.298l1.549-0.066l0.533-1.299L30.043,82.975z"
         id="path4464" />
      <path
         fill="#666666"
         d="M30.809,84.773l-1.549,0.066l-0.533,1.299l1.55-0.066L30.809,84.773z"
         id="path4466" />
      <path
         fill="#666666"
         d="M28.479,86.736l-0.55,1.299l1.55-0.083l0.549-1.299L28.479,86.736z"
         id="path4468" />
      <path
         fill="#666666"
         d="M27.729,88.518l-0.533,1.298l1.533-0.066l0.55-1.315L27.729,88.518z"
         id="path4470" />
      <path
         fill="#666666"
         d="M27.979,91.6l0.532-1.282l-1.548,0.05l-0.532,1.316L27.979,91.6z"
         id="path4472" />
      <path
         fill="#666666"
         d="M30.027,78.728l-0.383,0.932l1.25-0.034l0.398-0.965L30.027,78.728z"
         id="path4474" />
      <path
         fill="#666666"
         d="M29.245,80.609l-0.383,0.933l1.249-0.033l0.4-0.965L29.245,80.609z"
         id="path4476" />
      <path
         fill="#666666"
         d="M28.511,82.407l-0.383,0.931l1.232-0.049l0.415-0.965L28.511,82.407z"
         id="path4478" />
      <path
         fill="#666666"
         d="M28.977,84.206l-1.248,0.066l-0.382,0.933l1.248-0.049L28.977,84.206z"
         id="path4480" />
      <path
         fill="#666666"
         d="M26.948,86.155l-0.385,0.932l1.25-0.049l0.401-0.948L26.948,86.155z"
         id="path4482" />
      <path
         fill="#666666"
         d="M26.197,87.953l-0.383,0.932l1.249-0.048l0.398-0.95L26.197,87.953z"
         id="path4484" />
      <path
         fill="#666666"
         d="M25.432,89.816l-0.383,0.934l1.25-0.051l0.399-0.948L25.432,89.816z"
         id="path4486" />
      <path
         fill="#666666"
         d="M29.478,78.178l0.333-0.799l-0.934,0.149l-0.333,0.766L29.478,78.178z"
         id="path4488" />
      <path
         fill="#666666"
         d="M28.095,79.41l-0.333,0.767l0.933-0.1l0.35-0.816L28.095,79.41z"
         id="path4490" />
      <path
         fill="#666666"
         d="M27.347,81.191l-0.334,0.8l0.95-0.134l0.333-0.815L27.347,81.191z"
         id="path4492" />
      <path
         fill="#666666"
         d="M26.563,83.056l-0.333,0.801l0.949-0.134l0.35-0.799L26.563,83.056z"
         id="path4494" />
      <path
         fill="#666666"
         d="M25.798,84.956l-0.333,0.766l0.933-0.117l0.333-0.799L25.798,84.956z"
         id="path4496" />
      <path
         fill="#666666"
         d="M25.048,86.736l-0.333,0.8l0.933-0.116l0.333-0.833L25.048,86.736z"
         id="path4498" />
      <path
         fill="#666666"
         d="M24.265,88.603l-0.316,0.782l0.933-0.099l0.333-0.816L24.265,88.603z"
         id="path4500" />
      <path
         fill="#666666"
         d="M27.729,76.546l-0.217,0.533h0.716l0.232-0.583L27.729,76.546z"
         id="path4502" />
      <path
         fill="#666666"
         d="M26.962,78.412l-0.233,0.548l0.717-0.016l0.232-0.568L26.962,78.412z"
         id="path4504" />
      <path
         fill="#666666"
         d="M26.23,80.194l-0.233,0.565h0.7l0.233-0.583L26.23,80.194z"
         id="path4506" />
      <path
         fill="#666666"
         d="M25.448,82.075l-0.216,0.549l0.699-0.016l0.232-0.583L25.448,82.075z"
         id="path4508" />
      <path
         fill="#666666"
         d="M24.667,83.956l-0.218,0.55l0.701-0.017l0.233-0.567L24.667,83.956z"
         id="path4510" />
      <path
         fill="#666666"
         d="M23.916,85.771l-0.217,0.532l0.7-0.017l0.233-0.566L23.916,85.771z"
         id="path4512" />
      <path
         fill="#666666"
         d="M23.15,87.636l-0.234,0.533l0.7-0.016l0.249-0.567L23.15,87.636z"
         id="path4514" />
    </g>
    <g
       id="g4516">
      <path
         d="M40.718,95.611l5.311-12.787c-2.33-2.581-5.228-3.846-8.708-3.78l-5.345,12.905C35.239,91.516,38.135,92.746,40.718,95.611z"
         id="path4518" />
      <path
         d="M37.02,79.044l-1.965,0.116l-0.666,1.632l1.965-0.184L37.02,79.044z"
         id="path4520" />
      <path
         d="M36.238,80.893l-1.949,0.133l-0.681,1.632l1.98-0.183L36.238,80.893z"
         id="path4522" />
      <path
         d="M35.472,82.758l-1.947,0.115l-0.684,1.617l1.981-0.151L35.472,82.758z"
         id="path4524" />
      <path
         d="M34.707,84.622l-1.966,0.117l-0.665,1.615l1.965-0.167L34.707,84.622z"
         id="path4526" />
      <path
         d="M33.941,86.453l-1.965,0.117l-0.667,1.616l1.981-0.167L33.941,86.453z"
         id="path4528" />
      <path
         d="M33.158,88.351l-1.966,0.118l-0.665,1.632l1.965-0.167L33.158,88.351z"
         id="path4530" />
      <path
         d="M32.374,90.217l-1.948,0.118l-0.682,1.63l1.98-0.184L32.374,90.217z"
         id="path4532" />
      <path
         d="M32.991,78.96l-0.617,1.483l1.815-0.15l0.617-1.464L32.991,78.96z"
         id="path4534" />
      <path
         fill="#FF3300"
         d="M33.424,82.174l0.6-1.465l-1.815,0.132l-0.617,1.482L33.424,82.174z"
         id="path4536" />
      <path
         fill="#FF3300"
         d="M32.673,83.972l0.617-1.482l-1.831,0.149l-0.6,1.465L32.673,83.972z"
         id="path4538" />
      <path
         d="M30.692,84.506l-0.633,1.482l1.849-0.15l0.599-1.482L30.692,84.506z"
         id="path4540" />
      <path
         fill="#02A5FF"
         d="M29.893,86.386l-0.599,1.481l1.831-0.146l0.601-1.484L29.893,86.386z"
         id="path4542" />
      <path
         fill="#02A5FF"
         d="M29.144,88.186l-0.599,1.481l1.833-0.15l0.615-1.482L29.144,88.186z"
         id="path4544" />
      <path
         d="M29.594,91.381l0.615-1.465l-1.813,0.132l-0.617,1.466L29.594,91.381z"
         id="path4546" />
      <path
         d="M32.908,78.145l-1.532,0.067l-0.549,1.316l1.548-0.085L32.908,78.145z"
         id="path4548" />
      <path
         fill="#FF3300"
         d="M30.593,80.109l-0.549,1.299l1.548-0.083l0.535-1.283L30.593,80.109z"
         id="path4550" />
      <path
         fill="#FF3300"
         d="M29.844,81.892l-0.533,1.315l1.548-0.083l0.533-1.283L29.844,81.892z"
         id="path4552" />
      <path
         d="M30.61,83.706l-1.548,0.049l-0.533,1.316l1.55-0.082L30.61,83.706z"
         id="path4554" />
      <path
         fill="#02A5FF"
         d="M28.279,85.655L27.73,86.97l1.565-0.082l0.532-1.298L28.279,85.655z"
         id="path4556" />
      <path
         fill="#02A5FF"
         d="M27.545,87.453l-0.533,1.282l1.532-0.065l0.549-1.299L27.545,87.453z"
         id="path4558" />
      <path
         d="M27.779,90.534l0.533-1.299l-1.532,0.066l-0.549,1.296L27.779,90.534z"
         id="path4560" />
      <path
         d="M29.844,77.661l-0.382,0.933l1.231-0.051l0.4-0.948L29.844,77.661z"
         id="path4562" />
      <path
         fill="#FF3300"
         d="M29.062,79.543l-0.383,0.932l1.232-0.048l0.4-0.95L29.062,79.543z"
         id="path4564" />
      <path
         fill="#FF3300"
         d="M28.312,81.326l-0.383,0.933l1.25-0.034l0.398-0.982L28.312,81.326z"
         id="path4566" />
      <path
         d="M28.795,83.124l-1.25,0.067l-0.399,0.933l1.25-0.031L28.795,83.124z"
         id="path4568" />
      <path
         fill="#02A5FF"
         d="M26.764,85.071l-0.399,0.95l1.266-0.05l0.383-0.967L26.764,85.071z"
         id="path4570" />
      <path
         fill="#02A5FF"
         d="M26.015,86.871l-0.384,0.949l1.25-0.05l0.382-0.966L26.015,86.871z"
         id="path4572" />
      <path
         d="M25.233,88.734l-0.385,0.95l1.249-0.05l0.4-0.965L25.233,88.734z"
         id="path4574" />
      <path
         d="M29.295,77.113l0.333-0.8l-0.949,0.134l-0.317,0.782L29.295,77.113z"
         id="path4576" />
      <path
         fill="#FF3300"
         d="M27.895,78.328l-0.333,0.784l0.948-0.117l0.333-0.815L27.895,78.328z"
         id="path4578" />
      <path
         fill="#FF3300"
         d="M27.146,80.128l-0.333,0.782l0.949-0.116l0.35-0.815L27.146,80.128z"
         id="path4580" />
      <path
         d="M26.38,81.991l-0.333,0.784l0.932-0.117l0.35-0.817L26.38,81.991z"
         id="path4582" />
      <path
         fill="#02A5FF"
         d="M25.598,83.874l-0.315,0.781l0.931-0.115l0.334-0.799L25.598,83.874z"
         id="path4584" />
      <path
         fill="#02A5FF"
         d="M24.848,85.671l-0.315,0.782l0.931-0.116l0.333-0.816L24.848,85.671z"
         id="path4586" />
      <path
         d="M24.066,87.536l-0.3,0.767l0.933-0.102l0.333-0.815L24.066,87.536z"
         id="path4588" />
      <path
         d="M27.545,75.48l-0.232,0.533l0.714-0.017l0.251-0.583L27.545,75.48z"
         id="path4590" />
      <path
         fill="#FF3300"
         d="M26.78,77.345l-0.233,0.55l0.7-0.017l0.232-0.582L26.78,77.345z"
         id="path4592" />
      <path
         fill="#FF3300"
         d="M26.031,79.126l-0.217,0.55h0.682l0.233-0.583L26.031,79.126z"
         id="path4594" />
      <path
         d="M25.264,80.993l-0.232,0.548h0.699l0.249-0.583L25.264,80.993z"
         id="path4596" />
      <path
         fill="#02A5FF"
         d="M24.482,82.89l-0.233,0.533l0.699-0.016l0.232-0.549L24.482,82.89z"
         id="path4598" />
      <path
         fill="#02A5FF"
         d="M23.733,84.689L23.5,85.238l0.7-0.016l0.248-0.568L23.733,84.689z"
         id="path4600" />
      <path
         d="M22.95,86.554l-0.217,0.551l0.7-0.019l0.233-0.583L22.95,86.554z"
         id="path4602" />
      <path
         fill="#FF3300"
         d="M38.153,85.287l1.698-4.079c-0.832-0.284-1.932-0.399-3.296-0.367l-1.683,4.064C36.121,84.854,37.221,84.99,38.153,85.287z"
         id="path4604" />
      <path
         fill="#66CC33"
         d="M43.764,83.157c-0.766-0.783-1.666-1.332-2.697-1.666l-1.732,4.18l1.165,0.483c0.448,0.182,0.965,0.55,1.564,1.116L43.764,83.157z"
         id="path4606" />
      <path
         fill="#FFCC00"
         d="M41.566,88.437c-0.767-0.768-1.682-1.284-2.731-1.566l-1.665,4.012c0.965,0.334,1.866,0.883,2.732,1.615L41.566,88.437z"
         id="path4608" />
      <path
         fill="#02A5FF"
         d="M36.021,90.45l1.614-3.896c-1.016-0.333-2.113-0.466-3.279-0.383l-1.648,3.948C33.69,90.066,34.789,90.185,36.021,90.45z"
         id="path4610" />
      <g
         id="g4612">
        <path
           d="M41.995,94.514c-0.133,0.133-0.199,0.283-0.199,0.465c0,0.184,0.066,0.316,0.199,0.449c0.116,0.135,0.282,0.184,0.45,0.184c0.183,0,0.333-0.049,0.466-0.184c0.117-0.133,0.183-0.266,0.183-0.449s-0.066-0.332-0.183-0.465c-0.134-0.117-0.283-0.184-0.466-0.184C42.277,94.33,42.11,94.396,41.995,94.514z M41.928,94.979c0-0.15,0.049-0.283,0.149-0.381c0.1-0.104,0.233-0.15,0.367-0.15c0.15,0,0.284,0.047,0.367,0.15c0.116,0.098,0.165,0.232,0.165,0.381c0,0.15-0.049,0.283-0.165,0.383c-0.084,0.1-0.217,0.15-0.367,0.15c-0.133,0-0.267-0.051-0.367-0.15C41.978,95.262,41.928,95.129,41.928,94.979z"
           id="path4614" />
        <path
           d="M42.495,94.613h-0.283v0.732h0.1v-0.316h0.133l0.2,0.316h0.117l-0.2-0.316c0.117-0.033,0.183-0.102,0.183-0.217C42.744,94.68,42.661,94.613,42.495,94.613z M42.444,94.928h-0.133v-0.232h0.151c0.117,0,0.167,0.051,0.167,0.117C42.627,94.895,42.578,94.928,42.444,94.928z"
           id="path4616" />
      </g>
    </g>
  </g>
  <text
     xml:space="preserve"
     style="font-size:7.19999981px;font-style:normal;font-variant:normal;font-weight:normal;font-stretch:normal;text-align:start;line-height:85.00000238%;letter-spacing:0px;word-spacing:0px;writing-mode:lr-tb;text-anchor:start;fill:#5dac39;fill-opacity:1;stroke:none;font-family:Arial;-inkscape-font-specification:Arial"
     x="171.77063"
     y="106.06067"
     id="text4635"
     sodipodi:linespacing="85.000002%"><tspan
       sodipodi:role="line"
       id="tspan5423"
       x="171.77063"
       y="106.06067">Millennium</tspan><tspan
       sodipodi:role="line"
       id="tspan5425"
       x="171.77063"
       y="112.18067">Edition</tspan></text>
</svg>
